#!OML:ASF H:\Male1\Project 1\Capture day 1\Session 1\Male1.ASF
:FULLY-SPECIFIED
:DEGREES
196
root 3.67567 15.6452 -0.252786 -195.292 67.824 -196.915
lowerback 18.8272 -1.64696 -6.09923
upperback 7.31418 -2.63916 -1.53109
thorax -2.41056 -1.10698 2.34711
lowerneck -13.6859 1.97132 5.62759
upperneck 7.78169 2.20531 -5.39946
head 4.68275 0.913828 -2.41569
rclavicle 2.82523e-014 2.22639e-014
rhumerus -64.1652 19.4398 -41.6846
rradius 69.1929
rwrist -33.8766
rhand -10.3697 3.76955
rfingers 7.12502
rthumb 15.6276 -25.6192
lclavicle 2.82523e-014 2.22639e-014
lhumerus -16.8669 -1.1597 34.4861
lradius 117.547
lwrist 28.3565
lhand -34.9706 7.2387
lfingers 7.12502
lthumb -8.11639 37.0628
rfemur -25.0797 8.4928 12.4245
rtibia 28.2634
rfoot -29.9722 -31.2916
rtoes -20.4712
lfemur -3.356 -10.5464 -25.0273
ltibia 55.8586
lfoot -18.9988 13.8798
ltoes -22.9931
197
root 3.99565 15.4688 -0.230409 -195.774 67.8719 -197.724
lowerback 18.0462 -1.53846 -6.1181
upperback 7.10279 -2.49274 -1.4844
thorax -2.24241 -1.05454 2.3586
lowerneck -13.6556 1.94821 5.71443
upperneck 8.02945 2.21407 -5.79227
head 4.76109 0.896283 -2.5533
rclavicle 3.44332e-014 -2.04375e-014
rhumerus -64.7108 18.4459 -42.6243
rradius 68.7283
rwrist -34.6053
rhand -11.4729 4.30385
rfingers 7.12502
rthumb 14.5649 -25.1648
lclavicle 3.44332e-014 -2.04375e-014
lhumerus -19.8937 -0.463357 35.631
lradius 121.017
lwrist 28.0951
lhand -35.8791 8.68071
lfingers 7.12502
lthumb -8.99312 38.469
rfemur -24.6977 9.94 12.4706
rtibia 28.8817
rfoot -29.2837 -31.3763
rtoes -19.8888
lfemur -4.33067 -10.1061 -25.0886
ltibia 57.7384
lfoot -19.5583 14.8222
ltoes -23.0675
198
root 4.29361 15.3875 -0.219036 -194.621 67.9761 -196.827
lowerback 17.7053 -1.61318 -5.16919
upperback 6.8099 -2.46441 -1.36289
thorax -2.42974 -1.03762 1.94494
lowerneck -13.5759 1.96986 5.72223
upperneck 8.21246 2.26896 -5.93063
head 4.80993 0.91552 -2.59443
rclavicle 2.51463e-014 1.90336e-014
rhumerus -64.6782 17.2055 -43.7315
rradius 67.8918
rwrist -33.9212
rhand -10.1144 4.87287
rfingers 7.12502
rthumb 15.8735 -24.4965
lclavicle 2.51463e-014 1.90336e-014
lhumerus -22.9509 -0.104507 37.1892
lradius 124.214
lwrist 27.399
lhand -38.4456 8.68693
lfingers 7.12502
lthumb -11.469 38.3532
rfemur -25.2486 9.71384 13.3985
rtibia 30.4377
rfoot -24.6469 -30.7157
rtoes -18.4158
lfemur -5.3765 -10.0347 -24.6252
ltibia 59.2655
lfoot -19.8881 15.9792
ltoes -23.3765
199
root 4.54383 15.257 -0.195474 -193.99 69.2228 -196.228
lowerback 18.2603 -1.33491 -4.34196
upperback 6.43801 -2.04009 -1.26169
thorax -3.1814 -0.811484 1.52732
lowerneck -12.8841 2.06797 6.38569
upperneck 7.56502 2.39222 -6.79487
head 4.52403 0.957169 -2.96371
rclavicle -2.01269e-015 -3.13086e-014
rhumerus -64.1578 16.1754 -45.8317
rradius 67.1372
rwrist -33.6001
rhand -11.6587 4.47891
rfingers 7.12502
rthumb 14.3858 -25.0026
lclavicle -2.01269e-015 -3.13086e-014
lhumerus -26.1985 0.0439324 39.0916
lradius 127.069
lwrist 25.8119
lhand -39.3708 10.2354
lfingers 7.12502
lthumb -12.3612 39.8499
rfemur -26.4833 8.4991 14.6944
rtibia 32.3527
rfoot -19.3856 -28.1035
rtoes -10.0918
lfemur -6.7278 -9.36451 -24.1435
ltibia 60.939
lfoot -20.5718 16.1047
ltoes -23.7653
200
root 4.73487 15.1324 -0.219444 -189.21 71.5308 -191.092
lowerback 19.1271 -1.2442 -1.40971
upperback 6.38422 -1.42789 -0.902225
thorax -3.80924 -0.489267 0.140771
lowerneck -11.8815 2.27085 7.64345
upperneck 5.99719 2.6236 -8.50732
head 3.93966 1.03917 -3.68574
rclavicle -1.49089e-014 -9.93923e-017
rhumerus -62.4053 15.5104 -48.4844
rradius 65.7729
rwrist -33.122
rhand -13.5357 4.45867
rfingers 7.12502
rthumb 12.5768 -25.1428
lclavicle -1.49089e-014 -9.93923e-017
lhumerus -29.5136 -0.100785 41.872
lradius 129.395
lwrist 24.5764
lhand -39.9313 11.0063
lfingers 7.12502
lthumb -12.9016 40.5875
rfemur -27.3624 6.83046 18.0158
rtibia 34.5154
rfoot -17.3708 -25.7947
rtoes -12.0175
lfemur -8.12461 -8.50785 -22.3243
ltibia 62.5113
lfoot -20.9186 16.1393
ltoes -23.3764
201
root 4.93906 15.07 -0.233821 -182.764 73.5303 -184.509
lowerback 19.7515 -1.23527 1.19518
upperback 6.33519 -0.916574 -0.488089
thorax -4.23315 -0.233582 -1.00498
lowerneck -11.1487 2.5139 8.55065
upperneck 4.8767 2.90996 -9.67301
head 3.53898 1.17043 -4.17879
rclavicle -7.15625e-015 3.05134e-014
rhumerus -60.6998 15.8873 -51.9439
rradius 64.9367
rwrist -32.2678
rhand -15.0767 4.9246
rfingers 7.12502
rthumb 11.0908 -24.7623
lclavicle -7.15625e-015 3.05134e-014
lhumerus -32.9195 -0.801546 45.3874
lradius 130.635
lwrist 22.204
lhand -41.7547 10.1657
lfingers 7.12502
lthumb -14.6588 39.6276
rfemur -27.9827 3.94453 21.5289
rtibia 36.1624
rfoot -15.1943 -22.772
rtoes -18.3417
lfemur -9.65975 -7.95113 -20.4553
ltibia 63.7539
lfoot -21.2999 16.0709
ltoes -23.3171
202
root 5.14768 15.0569 -0.202891 -183.522 74.2337 -185.616
lowerback 20.1864 -1.14201 0.787078
upperback 6.41708 -0.853801 -0.453383
thorax -4.36176 -0.198777 -0.747887
lowerneck -10.7173 2.71956 8.97318
upperneck 4.00718 3.15828 -10.2691
head 3.24928 1.29481 -4.41823
rclavicle -4.52235e-015 -3.27995e-015
rhumerus -59.3117 16.7693 -55.5316
rradius 65.2487
rwrist -31.2869
rhand -15.7858 5.9223
rfingers 7.12502
rthumb 10.4068 -23.8002
lclavicle -4.52235e-015 -3.27995e-015
lhumerus -35.7235 -1.87178 49.4165
lradius 130.775
lwrist 19.7273
lhand -42.485 9.9102
lfingers 7.12502
lthumb -15.3624 39.3195
rfemur -28.3675 1.23864 22.1843
rtibia 37.3218
rfoot -14.6995 -20.0736
rtoes -22.3089
lfemur -11.4331 -8.5248 -21.2691
ltibia 64.462
lfoot -21.2558 16.8228
ltoes -23.8748
203
root 5.34286 15.0597 -0.171164 -183.827 74.7444 -186.311
lowerback 20.3038 -1.03548 0.422432
upperback 6.72685 -0.741457 -0.202667
thorax -4.07871 -0.133364 -0.300113
lowerneck -10.9111 2.91689 8.58874
upperneck 3.66848 3.4466 -10.2418
head 3.20089 1.4333 -4.32491
rclavicle -3.8763e-015 1.86858e-014
rhumerus -57.9647 18.0032 -58.6799
rradius 66.165
rwrist -29.8623
rhand -15.171 5.65527
rfingers 7.12502
rthumb 10.9998 -24.0365
lclavicle -3.8763e-015 1.86858e-014
lhumerus -37.6316 -3.15688 53.7675
lradius 129.721
lwrist 17.1795
lhand -41.5156 10.3555
lfingers 7.12502
lthumb -14.4285 39.834
rfemur -28.3182 1.40707 22.4752
rtibia 37.8963
rfoot -15.0077 -19.9772
rtoes -25.0756
lfemur -13.3729 -9.10549 -21.942
ltibia 64.9476
lfoot -21.4752 17.8381
ltoes -23.3465
204
root 5.51541 15.0544 -0.142008 -182.43 75.4559 -185.375
lowerback 20.5558 -0.937168 0.510441
upperback 6.89785 -0.558068 0.128791
thorax -4.02058 -0.0380888 -0.0387961
lowerneck -11.7446 3.16658 7.66113
upperneck 4.35484 3.84092 -9.44344
head 3.5437 1.61892 -3.88965
rclavicle -4.67144e-015 1.98785e-015
rhumerus -56.9521 19.5233 -61.5978
rradius 67.6691
rwrist -27.8034
rhand -13.2242 5.36293
rfingers 7.12502
rthumb 12.8771 -24.2198
lclavicle -4.67144e-015 1.98785e-015
lhumerus -38.9542 -4.28928 57.8579
lradius 127.714
lwrist 15.1605
lhand -38.3931 11.1509
lfingers 7.12502
lthumb -11.4184 40.82
rfemur -28.3705 3.22591 23.0057
rtibia 38.2892
rfoot -15.9591 -20.9802
rtoes -23.6327
lfemur -15.5627 -9.16408 -22.0255
ltibia 65.4328
lfoot -22.2875 18.5996
ltoes -21.2756
205
root 5.67855 15.0691 -0.11396 -181.014 76.3911 -184.515
lowerback 20.8915 -0.799554 0.685817
upperback 7.00416 -0.321353 0.274735
thorax -4.0777 0.0825951 -0.0375847
lowerneck -12.4181 3.36402 7.34336
upperneck 4.94361 4.11699 -9.08413
head 3.83955 1.74309 -3.69923
rclavicle -1.96797e-014 7.95139e-016
rhumerus -56.5143 20.8006 -64.5386
rradius 69.8626
rwrist -25.7773
rhand -12.3056 5.65138
rfingers 7.12502
rthumb 13.7625 -23.8734
lclavicle -1.96797e-014 7.95139e-016
lhumerus -39.7123 -5.83105 60.8163
lradius 124.961
lwrist 14.6121
lhand -34.9431 11.3006
lfingers 7.12502
lthumb -8.0899 41.1258
rfemur -28.5072 3.74264 23.6872
rtibia 38.446
rfoot -16.2721 -20.5949
rtoes -23.1795
lfemur -17.7248 -8.54743 -21.9954
ltibia 65.8294
lfoot -23.6325 18.6505
ltoes -18.6643
